X,Velocity,Repitition,Sustain,MidiPitch,Pitch,Time,Delete,Duration,Max,Transient,Stamp
1,pp,1,0,49,C#3,21,d,,,,
2,pp,1,0,21,A0,45,,26.96,0.015716552734375,4006,2284400
3,pp,2,0,21,A0,72,,30.96,0.02069091796875,1097,3578600
4,mp,1,0,21,A0,103,,30.06,0.022796630859375,4570,5064600
5,mp,2,0,21,A0,133,,32.01,0.0205078125,4584,6507400
6,f,1,0,21,A0,165,,28.99,0.036712646484375,4641,8043800
7,f,2,0,21,A0,194,,32.04,0.0418701171875,4618,9435200
8,pp,1,0,22,A#0,226,,27.96,0.0191650390625,3611,10973000
9,pp,2,0,22,A#0,254,,27.03,0.022491455078125,3793,12315200
10,mp,1,0,22,A#0,281,,28.97,0.03973388671875,4196,13612600
11,mp,2,0,22,A#0,310,,29,0.042266845703125,4322,15003200
12,f,1,0,22,A#0,339,,33.02,0.07196044921875,4380,16395000
13,f,2,0,22,A#0,372,,37,0.06561279296875,4353,17979800
14,pp,1,0,23,B0,409,,35,0.02276611328125,12772,19755800
15,pp,2,0,23,B0,444,,32.02,0.019805908203125,12774,21435600
16,mp,1,0,23,B0,476,,38,0.037353515625,13167,22972400
17,mp,2,0,23,B0,514,,35,0.03240966796875,13207,24796200
18,f,1,0,23,B0,549,d,,,,
19,f,1,0,23,B0,554,,37.28,0.0570068359375,13392,26701200
20,f,2,0,23,B0,591,,38.02,0.051788330078125,13320,28490800
21,pp,1,0,24,C1,629,,31,0.014251708984375,12525,30315600
22,pp,2,0,24,C1,660,,32,0.01513671875,12528,31803600
23,mp,1,0,24,C1,692,,29.98,0.037689208984375,3889,33339600
24,mp,2,0,24,C1,722,,34.04,0.03143310546875,3783,34778800
25,f,1,0,24,C1,756,,30,0.043701171875,3854,36412800
26,f,2,0,24,C1,786,d,,,,
27,f,2,0,24,C1,802,,32.99,0.042449951171875,3785,38620400
28,pp,1,0,25,C#1,835,,27.01,0.018890380859375,2135,40203800
29,pp,2,0,25,C#1,862,,31,0.01654052734375,2032,41500400
30,mp,1,0,25,C#1,893,,36.01,0.035919189453125,2482,42988400
31,mp,2,0,25,C#1,929,,33.98,0.028717041015625,2378,44717000
32,f,1,0,25,C#1,963,,33.99,0.04595947265625,2574,46348200
33,f,2,0,25,C#1,997,,36.07,0.04632568359375,2516,47979800
34,pp,1,0,26,D1,1033,,22.9,0.008819580078125,6934,49711000
35,pp,2,0,26,D1,1056,,23.05,0.0098876953125,6902,50810400
36,mp,1,0,26,D1,1079,,28.96,0.025054931640625,7231,51917000
37,mp,2,0,26,D1,1108,,29.03,0.028045654296875,7288,53307000
38,f,1,0,26,D1,1137,,30.99,0.0433349609375,7354,54700600
39,f,2,0,26,D1,1168,d,,,,
40,f,2,0,26,D1,1172,,31.06,0.04510498046875,7310,56367400
41,pp,1,0,27,D#1,1244,,29.96,0.010101318359375,11441,59837000
42,pp,2,0,27,D#1,1274,,28.02,0.01031494140625,11455,61275200
43,mp,1,0,27,D#1,1302,,27,0.02386474609375,11775,62620000
44,mp,2,0,27,D#1,1329,,28.99,0.02703857421875,11856,63916200
45,f,1,0,27,D#1,1358,,30.02,0.04205322265625,11877,65307800
46,f,2,0,27,D#1,1388,,32.95,0.036407470703125,11912,66748800
47,pp,1,0,28,E1,1421,,26.01,0.01031494140625,10859,68330400
48,pp,2,0,28,E1,1447,,26.03,0.01025390625,11001,69579000
49,mp,1,0,28,E1,1473,,29.02,0.021392822265625,1803,70828400
50,mp,2,0,28,E1,1502,,28.94,0.020233154296875,1519,72221200
51,f,1,0,28,E1,1531,,34.02,0.0401611328125,3187,73610400
52,f,2,0,28,E1,1565,,33.03,0.035736083984375,3181,75243400
53,pp,1,0,29,F1,1598,d,,,,
54,pp,1,0,29,F1,1603,,29.28,0.01318359375,16474,77053800
55,pp,2,0,29,F1,1632,,3.73,0.0225830078125,16825,78459200
56,mp,1,0,29,F1,1636,,46.26,0.035064697265625,16835,78638400
57,mp,2,0,29,F1,1682,,30,0.031402587890625,16809,80859000
58,f,1,0,29,F1,1712,,32.02,0.051025390625,16997,82299000
59,f,2,0,29,F1,1744,,37.98,0.057586669921875,16880,83836000
60,pp,1,0,30,F#1,1782,,27.02,0.017730712890625,9377,85659200
61,pp,2,0,30,F#1,1809,,26.99,0.015106201171875,9492,86956000
62,mp,1,0,30,F#1,1836,,25,0.029937744140625,6444,88251600
63,mp,2,0,30,F#1,1861,,28.95,0.027069091796875,6584,89451400
64,f,1,0,30,F#1,1890,,26.08,0.054840087890625,9990,90841200
65,f,2,0,30,F#1,1916,,28.99,0.0465087890625,9942,92093000
66,pp,1,0,31,G1,1945,,24,0.00836181640625,10054,93484600
67,pp,2,0,31,G1,1969,,26.97,0.011322021484375,9986,94636400
68,mp,1,0,31,G1,1996,,29.02,0.025665283203125,10134,95931000
69,mp,2,0,31,G1,2025,,27.99,0.022491455078125,2441,97324000
70,f,1,0,31,G1,2053,,33.02,0.040863037109375,11471,98667400
71,f,2,0,31,G1,2086,,31.98,0.039215087890625,11393,100252200
72,pp,1,0,32,G#1,2118,,25.02,0.012664794921875,9443,101787200
73,pp,2,0,32,G#1,2143,d,,,,
74,pp,2,0,32,G#1,2148,,29.27,0.0107421875,9480,103215000
75,mp,1,0,32,G#1,2177,,29.96,0.023162841796875,11522,104620200
76,mp,2,0,32,G#1,2207,,32.01,0.02435302734375,11640,106058400
77,f,1,0,32,G#1,2239,,34,0.03955078125,11699,107594800
78,f,2,0,32,G#1,2273,,33.04,0.044281005859375,11801,109226600
79,pp,1,0,33,A1,2306,d,,,,
80,pp,1,0,33,A1,2310,,28.25,0.00726318359375,8056,110990200
81,pp,2,0,33,A1,2338,,24.05,0.011383056640625,8118,112346400
82,mp,1,0,33,A1,2362,d,,,,
83,mp,1,0,33,A1,2366,,27.31,0.017852783203125,8252,113677600
84,mp,2,0,33,A1,2393,,28.97,0.020172119140625,8322,114988400
85,f,1,0,33,A1,2422,,35,0.036285400390625,8413,116379000
86,f,2,0,33,A1,2457,,34.99,0.0411376953125,8479,118059200
87,pp,1,0,34,A#1,2492,d,,,,
88,pp,1,0,34,A#1,2496,,42.3,0.008514404296875,3203,119918200
89,pp,2,0,34,A#1,2538,,30.96,0.00543212890625,2266,121948800
90,mp,1,0,34,A#1,2569,,29,0.0211181640625,3495,123434800
91,mp,2,0,34,A#1,2598,,38.03,0.021148681640625,3350,124827000
92,f,1,0,34,A#1,2636,,39.95,0.039398193359375,3448,126652600
93,f,2,0,34,A#1,2676,,39.05,0.04364013671875,3485,128570400
94,pp,1,0,35,B1,2715,,27.95,0.005096435546875,1518,130445000
95,pp,2,0,35,B1,2743,,29,0.00787353515625,10276,131786400
96,mp,1,0,35,B1,2772,,26.05,0.016448974609375,396,133178400
97,mp,2,0,35,B1,2798,,24.95,0.011444091796875,390,134428800
98,f,1,0,35,B1,2823,,33.97,0.03228759765625,618,135626400
99,f,2,0,35,B1,2857,,34.1,0.029876708984375,581,137257000
100,pp,1,0,36,C2,2891,,23.96,0.00537109375,5354,138893800
101,pp,2,0,36,C2,2915,,28.99,0.010223388671875,7656,140044000
102,mp,1,0,36,C2,2944,,31.03,0.019012451171875,3179,141435400
103,mp,2,0,36,C2,2975,,31.98,0.0177001953125,2976,142924800
104,f,1,0,36,C2,3007,,33.98,0.04144287109375,5070,144459800
105,f,2,0,36,C2,3041,,36.05,0.0377197265625,5042,146090800
106,pp,1,0,37,C#2,3077,,25.03,0.00738525390625,5318,147821400
107,pp,2,0,37,C#2,3102,,21.9,0.00433349609375,7122,149023000
108,mp,1,0,37,C#2,3124,,31.03,0.0224609375,2844,150074200
109,mp,2,0,37,C#2,3155,,24.99,0.020904541015625,2800,151563600
110,f,1,0,37,C#2,3180,,32.01,0.042083740234375,2838,152763200
111,f,2,0,37,C#2,3212,,35.02,0.0450439453125,2824,154299600
112,pp,1,0,38,D2,3247,,18.98,0.00592041015625,3761,155980800
113,pp,2,0,38,D2,3266,,22,0.00909423828125,1720,156892000
114,mp,1,0,38,D2,3288,d,,,,
115,mp,1,0,38,D2,3292,,26.29,0.0208740234375,1768,158124200
116,mp,2,0,38,D2,3318,,26.01,0.02398681640625,1699,159386200
117,f,1,0,38,D2,3344,,31.01,0.048614501953125,1237,160634600
118,f,2,0,38,D2,3375,,30.02,0.04730224609375,1272,162123000
119,pp,1,0,39,D#2,3405,,19.96,0.012939453125,2052,163564200
120,pp,2,0,39,D#2,3425,,21.05,0.01397705078125,2300,164522200
121,mp,1,0,39,D#2,3446,,24.96,0.030792236328125,2275,165532600
122,mp,2,0,39,D#2,3471,,27.01,0.030670166015625,2268,166730600
123,f,1,0,39,D#2,3498,,32,0.06878662109375,2416,168027000
124,f,2,0,39,D#2,3530,d,,,,
125,f,2,0,39,D#2,3534,,30.32,0.060791015625,1796,169740600
126,pp,1,0,40,E2,3564,,18.52,0.011474609375,5575,171196000
127,pp,2,0,40,E2,3612,,21.22,0.014129638671875,5715,173501400
128,mp,1,0,40,E2,3664,,26.02,0.025665283203125,5778,175994200
129,mp,2,0,40,E2,3690,,24,0.03070068359375,5738,177243200
130,f,1,0,40,E2,3714,,23,0.0543212890625,5754,178395000
131,f,2,0,40,E2,3737,,25,0.067962646484375,4079,179499200
132,pp,1,0,41,F2,3762,,18.01,0.015167236328125,2364,180699200
133,pp,2,0,41,F2,3780,,19.97,0.01495361328125,1714,181563600
134,mp,1,0,41,F2,3800,,22.98,0.03302001953125,2332,182522000
135,mp,2,0,41,F2,3823,,24.01,0.03436279296875,2419,183625200
136,f,1,0,41,F2,3847,,28.04,0.084686279296875,2134,184777600
137,f,2,0,41,F2,3875,,30.02,0.0799560546875,1949,186123600
138,pp,1,0,42,F#2,3905,,17.95,0.0128173828125,1624,187564400
139,pp,2,0,42,F#2,3923,,19.98,0.011505126953125,1213,188426000
140,mp,1,0,42,F#2,3943,,26.05,0.034515380859375,717,189385000
141,mp,2,0,42,F#2,3969,,28.01,0.035736083984375,749,190635200
142,f,1,0,42,F#2,3997,,30.98,0.07659912109375,3986,191979800
143,f,2,0,42,F#2,4028,d,,,,
144,f,2,0,42,F#2,4033,d,,,,
145,f,2,0,42,F#2,4064,,31.01,0.080413818359375,4017,195195400
146,pp,1,0,43,G2,4095,,20.98,0.0130615234375,2937,196684000
147,pp,2,0,43,G2,4116,,21,0.015594482421875,3138,197690800
148,mp,1,0,43,G2,4137,,30.04,0.038299560546875,3227,198698800
149,mp,2,0,43,G2,4167,,28.99,0.0341796875,3174,200140600
150,f,1,0,43,G2,4196,,31.98,0.078338623046875,3177,201532200
151,f,2,0,43,G2,4228,,32.01,0.080322265625,3297,203067200
152,pp,1,0,44,G#2,4260,,22,0.012969970703125,9767,204603600
153,pp,2,0,44,G#2,4282,,24,0.01129150390625,9793,205659600
154,mp,1,0,44,G#2,4306,,27.01,0.032501220703125,3659,206811600
155,mp,2,0,44,G#2,4333,,25.96,0.022247314453125,3623,208108000
156,f,1,0,44,G#2,4359,,25.99,0.07379150390625,3854,209354000
157,f,2,0,44,G#2,4385,,30.01,0.073577880859375,3726,210601600
158,pp,1,0,45,A2,4415,,22.02,0.01104736328125,962,212042200
159,pp,2,0,45,A2,4437,,19,0.0093994140625,937,213099000
160,mp,1,0,45,A2,4456,,26,0.027801513671875,1182,214011000
161,mp,2,0,45,A2,4482,,23.99,0.025299072265625,1135,215259200
162,f,1,0,45,A2,4506,,26.02,0.05316162109375,2760,216410600
163,f,2,0,45,A2,4532,,25.98,0.058563232421875,2901,217659800
164,pp,1,0,46,A#2,4558,,21.03,0.008697509765625,1453,218907000
165,pp,2,0,46,A#2,4579,,20,0.009063720703125,1495,219916600
166,mp,1,0,46,A#2,4599,,23.98,0.032623291015625,3194,220876800
167,mp,2,0,46,A#2,4623,,25.99,0.030792236328125,3032,222028000
168,f,1,0,46,A#2,4649,,28.99,0.0714111328125,2758,223275400
169,f,2,0,46,A#2,4678,,28.02,0.064361572265625,2821,224666800
170,pp,1,0,47,B2,4706,,17.97,0.01007080078125,1477,226012000
171,pp,2,0,47,B2,4724,d,,,,
172,pp,2,0,47,B2,4728,d,,,,
173,pp,2,0,47,B2,4732,,18.39,0.01263427734375,1493,227243600
174,mp,1,0,47,B2,4750,d,,,,
175,mp,1,0,47,B2,4755,,24.31,0.03521728515625,2682,228349000
176,mp,2,0,47,B2,4779,,21.98,0.02874755859375,2580,229515800
177,f,1,0,47,B2,4801,,26.01,0.08294677734375,1183,230570800
178,f,2,0,47,B2,4827,d,,,,
179,f,2,0,47,B2,4850,,31.03,0.082794189453125,1218,232922000
180,pp,1,0,48,C3,4881,,20,0.0093994140625,7110,234411600
181,pp,2,0,48,C3,4901,,20.99,0.008819580078125,5357,235371600
182,mp,1,0,48,C3,4922,,26.98,0.024139404296875,7663,236379200
183,mp,2,0,48,C3,4949,,22.03,0.027069091796875,7652,237674200
184,f,1,0,48,C3,4971,,28.97,0.0631103515625,1236,238731800
185,f,2,0,48,C3,5000,,33.99,0.05706787109375,1162,240122400
186,pp,1,0,49,C#3,5034,,14.05,0.00799560546875,1056,241754000
187,pp,2,0,49,C#3,5048,,13.99,0.00799560546875,1597,242428200
188,mp,1,0,49,C#3,5062,,16.95,0.02313232421875,1336,243099800
189,mp,2,0,49,C#3,5079,,19.04,0.024383544921875,1416,243913200
190,f,1,0,49,C#3,5098,,21.01,0.05255126953125,1695,244827000
191,f,2,0,49,C#3,5119,,23.97,0.048187255859375,1839,245835600
192,pp,1,0,50,D3,5143,,17,0.011077880859375,4362,246986000
193,pp,2,0,50,D3,5160,,15.05,0.011199951171875,4232,247801800
194,mp,1,0,50,D3,5175,,19.98,0.027313232421875,6664,248524000
195,mp,2,0,50,D3,5195,,19.01,0.0244140625,4339,249483000
196,f,1,0,50,D3,5214,,22,0.0576171875,4361,250395400
197,f,2,0,50,D3,5236,d,,,,
198,f,2,0,50,D3,5249,,22.99,0.06817626953125,4474,252076600
199,pp,1,0,51,D#3,5272,,15,0.007598876953125,5465,253180000
200,pp,2,0,51,D#3,5287,,20.71,0.0067138671875,6078,253900000
201,mp,1,0,51,D#3,5302,d,,,,
202,mp,1,0,51,D#3,5308,,18.25,0.021759033203125,5333,254894000
203,mp,2,0,51,D#3,5326,,20.01,0.025726318359375,5327,255770200
204,f,1,0,51,D#3,5346,,29,0.056060791015625,6337,256730600
205,f,2,0,51,D#3,5375,,26,0.05255126953125,5056,258122600
206,pp,1,0,52,E3,5401,,23.03,0.009521484375,3833,259370600
207,pp,2,0,52,E3,5424,,19.98,0.006683349609375,2997,260476200
208,mp,1,0,52,E3,5444,,26.98,0.0283203125,3853,261435400
209,mp,2,0,52,E3,5471,,25,0.021575927734375,3556,262730400
210,f,1,0,52,E3,5496,,29,0.05450439453125,3849,263930400
211,f,2,0,52,E3,5525,d,,,,
212,f,2,0,52,E3,5530,,30.33,0.05755615234375,3766,265548600
213,pp,1,0,53,F3,5560,,16.96,0.005035400390625,4609,267004400
214,pp,2,0,53,F3,5577,,22.02,0.00921630859375,5966,267818600
215,mp,1,0,53,F3,5599,,29.01,0.034027099609375,5521,268875600
216,mp,2,0,53,F3,5628,,24.98,0.024871826171875,5491,270268000
217,f,1,0,53,F3,5653,,27.02,0.067047119140625,5764,271466800
218,f,2,0,53,F3,5680,,27.98,0.0693359375,5785,272763800
219,pp,1,0,54,F#3,5708,,16.01,0.00653076171875,873,274106600
220,pp,2,0,54,F#3,5724,,18,0.01324462890625,6035,274875200
221,mp,1,0,54,F#3,5742,,21.01,0.029632568359375,6885,275739400
222,mp,2,0,54,F#3,5763,,20.98,0.030487060546875,6892,276747800
223,f,1,0,54,F#3,5784,d,,,,
224,f,1,0,54,F#3,5789,,25.27,0.0684814453125,1938,277981600
225,f,2,0,54,F#3,5814,,23.98,0.059600830078125,7486,279194800
226,pp,1,0,55,G3,5838,d,,,,
227,pp,1,0,55,G3,5842,,18.29,0.009185791015625,7485,280524600
228,pp,2,0,55,G3,5860,,16.01,0.0048828125,7380,281402400
229,mp,1,0,55,G3,5876,,23,0.0269775390625,11430,282171000
230,mp,2,0,55,G3,5899,,22,0.0303955078125,11349,283275000
231,f,1,0,55,G3,5921,,21.99,0.064666748046875,11536,284330800
232,f,2,0,55,G3,5943,,25.06,0.064666748046875,11639,285386200
233,pp,1,0,56,G#3,5968,d,,,,
234,pp,1,0,56,G#3,5973,,18.29,0.013916015625,1950,286813200
235,pp,2,0,56,G#3,5991,,21.03,0.01422119140625,2145,287691000
236,mp,1,0,56,G#3,6012,,23.98,0.04180908203125,2099,288700600
237,mp,2,0,56,G#3,6036,,22.98,0.048065185546875,2144,289851600
238,f,1,0,56,G#3,6059,,23.03,0.0687255859375,2205,290954800
239,f,2,0,56,G#3,6082,,24.95,0.07135009765625,2044,292060200
240,pp,1,0,57,A3,6107,,18.05,0.010894775390625,3751,293257600
241,pp,2,0,57,A3,6125,,18,0.012725830078125,4206,294124000
242,mp,1,0,57,A3,6143,,20.01,0.031158447265625,7072,294988000
243,mp,2,0,57,A3,6163,,19.93,0.030029296875,3792,295948600
244,f,1,0,57,A3,6183,,22.02,0.06256103515625,3351,296905000
245,f,2,0,57,A3,6205,,23.07,0.069488525390625,3296,297962200
246,pp,1,0,58,A#3,6228,,17.97,0.00872802734375,1375,299069800
247,pp,2,0,58,A#3,6246,,17.99,0.0081787109375,1110,299932200
248,mp,1,0,58,A#3,6264,,21.99,0.03778076171875,1391,300795600
249,mp,2,0,58,A#3,6286,,20.98,0.03521728515625,1460,301851200
250,f,1,0,58,A#3,6307,,24.03,0.06689453125,1929,302858000
251,f,2,0,58,A#3,6331,,25,0.059906005859375,1236,304011600
252,pp,1,0,59,B3,6356,,21.97,0.009033203125,303,305211400
253,pp,2,0,59,B3,6378,d,,,,
254,pp,2,0,59,B3,6384,,22.31,0.007843017578125,867,306540400
255,mp,1,0,59,B3,6406,,23,0.0338134765625,1102,307611200
256,mp,2,0,59,B3,6429,,23.99,0.030487060546875,1014,308715400
257,f,1,0,59,B3,6453,,27,0.052459716796875,1143,309867000
258,f,2,0,59,B3,6480,,29.72,0.05218505859375,1166,311162800
259,pp,1,0,60,C4,6505,d,,,,
260,pp,1,0,60,C4,6510,,21.25,0.00823974609375,1233,312589400
261,pp,2,0,60,C4,6531,,20.08,0.00701904296875,1230,313609200
262,mp,1,0,60,C4,6551,,27.93,0.024871826171875,704,314573000
263,mp,2,0,60,C4,6579,,27,0.02679443359375,741,315913400
264,f,1,0,60,C4,6606,,28.02,0.055877685546875,1345,317209600
265,f,2,0,60,C4,6634,,42.88,0.055389404296875,1412,318554800
266,pp,1,0,61,C#4,6690,,15.92,0.007781982421875,5666,321245000
267,pp,2,0,61,C#4,6706,,17.01,0.01153564453125,5197,322009200
268,mp,1,0,61,C#4,6723,,20.98,0.033050537109375,5462,322825600
269,mp,2,0,61,C#4,6744,,19.05,0.029022216796875,5386,323832600
270,f,1,0,61,C#4,6763,,21.99,0.06353759765625,2631,324746800
271,f,2,0,61,C#4,6785,,23.01,0.06561279296875,2571,325802400
272,pp,1,0,62,D4,6808,,16,0.010986328125,561,326906800
273,pp,2,0,62,D4,6824,,17.01,0.014251708984375,720,327674600
274,mp,1,0,62,D4,6841,d,,,,
275,mp,1,0,62,D4,6848,d,,,,
276,mp,1,0,62,D4,6852,,18.36,0.032196044921875,618,329003000
277,mp,2,0,62,D4,6870,,17.97,0.030059814453125,696,329884200
278,f,1,0,62,D4,6888,,17.98,0.060882568359375,1082,330746800
279,f,2,0,62,D4,6906,,19.01,0.0657958984375,1013,331609600
280,pp,1,0,63,D#4,6925,,14,0.0108642578125,5086,332522200
281,pp,2,0,63,D#4,6939,,16.02,0.02008056640625,5169,333194000
282,mp,1,0,63,D#4,6955,,18.01,0.0384521484375,5043,333963000
283,mp,2,0,63,D#4,6973,,19.01,0.042236328125,5432,334827400
284,f,1,0,63,D#4,6992,,19.98,0.073211669921875,5392,335740000
285,f,2,0,63,D#4,7012,,22.99,0.0894775390625,5247,336699200
286,pp,1,0,64,E4,7035,,15.98,0.008514404296875,869,337802600
287,pp,2,0,64,E4,7051,,18.04,0.014373779296875,761,338569800
288,mp,1,0,64,E4,7069,d,,,,
289,mp,1,0,64,E4,7077,,19.28,0.029754638671875,932,339804800
290,mp,2,0,64,E4,7096,d,,,,
291,mp,2,0,64,E4,7101,,19.27,0.03887939453125,941,340956200
292,f,1,0,64,E4,7120,,21,0.06982421875,831,341881400
293,f,2,0,64,E4,7141,,20.03,0.074737548828125,968,342889600
294,pp,1,0,65,F4,7161,,17.98,0.01055908203125,1623,343851200
295,pp,2,0,65,F4,7179,,20.98,0.011962890625,1479,344714400
296,mp,1,0,65,F4,7200,,21.06,0.03662109375,1706,345721200
297,mp,2,0,65,F4,7221,,20.96,0.033203125,1712,346732200
298,f,1,0,65,F4,7242,,19.99,0.063812255859375,2633,347738200
299,f,2,0,65,F4,7262,,22.01,0.062103271484375,2679,348697600
300,pp,1,0,66,F#4,7284,,15.01,0.00762939453125,2072,349754200
301,pp,2,0,66,F#4,7299,,16.95,0.008331298828125,2047,350474800
302,mp,1,0,66,F#4,7316,,20.05,0.030609130859375,2130,351288400
303,mp,2,0,66,F#4,7336,,20,0.029876708984375,2066,352250800
304,f,1,0,66,F#4,7356,,20.98,0.073394775390625,1894,353210600
305,f,2,0,66,F#4,7377,,21.01,0.06329345703125,794,354217400
306,pp,1,0,67,G4,7398,,14.99,0.0101318359375,2482,355226000
307,pp,2,0,67,G4,7413,,16.01,0.015350341796875,1304,355945600
308,mp,1,0,67,G4,7429,,19.02,0.032073974609375,1234,356714200
309,mp,2,0,67,G4,7448,,15.51,0.0382080078125,1333,357627200
310,f,1,0,67,G4,7470,,21.99,0.073577880859375,1275,358682600
311,f,2,0,67,G4,7492,d,,,,
312,f,2,0,67,G4,7497,,22.27,0.076416015625,1399,359964600
313,pp,1,0,68,G#4,7519,,16.01,0.00762939453125,1050,361033600
314,pp,2,0,68,G#4,7535,,16.02,0.009765625,1043,361802000
315,mp,1,0,68,G#4,7551,,18.96,0.0279541015625,586,362571200
316,mp,2,0,68,G#4,7570,d,,,,
317,mp,2,0,68,G#4,7577,,16.31,0.017578125,1140,363803600
318,f,1,0,68,G#4,7593,,23,0.063262939453125,1347,364586400
319,f,2,0,68,G#4,7616,,21.77,0.062896728515625,1300,365690200
320,pp,1,0,69,A4,7651,,16.97,0.0098876953125,1227,367371200
321,pp,2,0,69,A4,7668,,18.04,0.010772705078125,1205,368185600
322,mp,1,0,69,A4,7686,,20.97,0.026641845703125,1251,369051400
323,mp,2,0,69,A4,7707,,20.02,0.0223388671875,1186,370058000
324,f,1,0,69,A4,7727,,20.97,0.055450439453125,4247,371019000
325,f,2,0,69,A4,7748,,22.01,0.048126220703125,950,372025600
326,pp,1,0,70,A#4,7770,,15.97,0.007537841796875,1590,373082000
327,pp,2,0,70,A#4,7786,d,,,,
328,pp,2,0,70,A#4,7790,,16.31,0.007720947265625,669,374028600
329,mp,1,0,70,A#4,7806,,20.98,0.03021240234375,1654,374811400
330,mp,2,0,70,A#4,7827,,18.99,0.025726318359375,1744,375818600
331,f,1,0,70,A#4,7846,,20.99,0.055328369140625,1651,376730200
332,f,2,0,70,A#4,7867,,21,0.053314208984375,1590,377737800
333,pp,1,0,71,B4,7888,,12.02,0.003936767578125,603,378745800
334,pp,2,0,71,B4,7900,,6.97,0.0040283203125,595,379322800
335,mp,1,0,71,B4,7912,,16.99,0.015716552734375,654,379898600
336,mp,2,0,71,B4,7929,,16.99,0.015777587890625,704,380714000
337,f,1,0,71,B4,7946,d,,,,
338,f,1,0,71,B4,7950,,17.32,0.03704833984375,741,381707200
339,f,2,0,71,B4,7967,,19.03,0.041046142578125,613,382538400
340,pp,1,0,72,C5,7986,,16.97,0.005096435546875,2036,383452000
341,pp,2,0,72,C5,8003,,17,0.00714111328125,2045,384266400
342,mp,1,0,72,C5,8020,,19.98,0.0255126953125,2210,385082600
343,mp,2,0,72,C5,8040,,20.04,0.025970458984375,2207,386041400
344,f,1,0,72,C5,8060,,19.97,0.05657958984375,2248,387003400
345,f,2,0,72,C5,8080,,43.98,0.06207275390625,2274,387962000
346,pp,1,0,73,C#5,8102,d,,,,
347,pp,1,0,73,C#5,8110,,15.02,0.0064697265625,3554,390073200
348,pp,2,0,73,C#5,8124,,15.02,0.0064697265625,3554,390073200
349,mp,1,0,73,C#5,8139,,21.02,0.02874755859375,3761,390794000
350,mp,2,0,73,C#5,8160,,18,0.0185546875,3777,391802800
351,f,1,0,73,C#5,8178,,22.97,0.06280517578125,5129,392666800
352,f,2,0,73,C#5,8201,,23.03,0.05694580078125,5211,393769400
353,pp,1,0,74,D5,8224,,15.96,0.007415771484375,3224,394875000
354,pp,2,0,74,D5,8240,,13.02,0.006195068359375,3233,395641200
355,mp,1,0,74,D5,8253,d,,,,
356,mp,1,0,74,D5,8257,,16.28,0.018310546875,3059,396444200
357,mp,2,0,74,D5,8273,,19,0.023406982421875,3284,397225800
358,f,1,0,74,D5,8292,,21.98,0.058074951171875,782,398138000
359,f,2,0,74,D5,8314,,23.02,0.05712890625,828,399193000
360,pp,1,0,75,D#5,8337,,13.98,0.0042724609375,732,400297800
361,pp,2,0,75,D#5,8351,,13.04,0.00360107421875,450,400969000
362,mp,1,0,75,D#5,8364,,17.99,0.021514892578125,687,401594800
363,mp,2,0,75,D#5,8382,,17.02,0.0186767578125,762,402458400
364,f,1,0,75,D#5,8399,,19.97,0.044708251953125,893,403275600
365,f,2,0,75,D#5,8419,,19.02,0.04638671875,884,404234000
366,pp,1,0,76,E5,8438,,13.01,0.0050048828125,798,405146800
367,pp,2,0,76,E5,8451,,13.97,0.00677490234375,824,405771200
368,mp,1,0,76,E5,8465,,13.96,0.018798828125,899,406442000
369,mp,2,0,76,E5,8479,d,,,,
370,mp,2,0,76,E5,8483,,14.32,0.023406982421875,759,407291000
371,f,1,0,76,E5,8497,,16.95,0.06170654296875,768,407978600
372,f,2,0,76,E5,8747,,18.98,0.061279296875,846,419979000
373,pp,1,0,77,F5,8766,,9.99,0.006561279296875,1504,420890000
374,pp,2,0,77,F5,8776,,11.01,0.00830078125,1668,421369600
375,mp,1,0,77,F5,8787,,11.97,0.028076171875,1713,421898000
376,mp,2,0,77,F5,8799,,14.02,0.02386474609375,1809,422472800
377,f,1,0,77,F5,8813,,14.01,0.056427001953125,1659,423145800
378,f,2,0,77,F5,8827,,12.01,0.059112548828125,1613,423818400
379,pp,1,0,78,F#5,8839,,12.04,0.0054931640625,1087,424395000
380,pp,2,0,78,F#5,8851,,11.97,0.0042724609375,525,424972800
381,mp,1,0,78,F#5,8863,,15.98,0.0223388671875,869,425547600
382,mp,2,0,78,F#5,8879,,16,0.025634765625,959,426314800
383,f,1,0,78,F#5,8895,d,,,,
384,f,1,0,78,F#5,8904,,15.99,0.045745849609375,896,427515000
385,f,2,0,78,F#5,8920,d,,,,
386,f,2,0,78,F#5,8970,,16.95,0.066375732421875,954,430682400
387,pp,1,0,79,G5,8987,,11.01,0.01153564453125,798,431496000
388,pp,2,0,79,G5,8998,,12.01,0.010345458984375,752,432024600
389,mp,1,0,79,G5,9010,,14.02,0.025421142578125,942,432601200
390,mp,2,0,79,G5,9024,,16.02,0.0361328125,886,433274000
391,f,1,0,79,G5,9040,,15.97,0.062713623046875,690,434043200
392,f,2,0,79,G5,9056,,16,0.05682373046875,789,434810000
393,pp,1,0,80,G#5,9072,,12.03,0.0089111328125,1070,435577800
394,pp,2,0,80,G#5,9084,,11.98,0.006256103515625,715,436155400
395,mp,1,0,80,G#5,9096,,19,0.0460205078125,1173,436730400
396,mp,2,0,80,G#5,9115,,19.02,0.04327392578125,1340,437642200
397,f,1,0,80,G#5,9134,,18.94,0.0675048828125,1093,438555400
398,f,2,0,80,G#5,9153,,19.03,0.084747314453125,1137,439464400
399,pp,1,0,81,A5,9172,,12.01,0.005645751953125,507,440377800
400,pp,2,0,81,A5,9184,,13,0.00775146484375,641,440954200
401,mp,1,0,81,A5,9197,,15,0.022064208984375,653,441578200
402,mp,2,0,81,A5,9212,,16,0.03106689453125,649,442298400
403,f,1,0,81,A5,9228,,16,0.055877685546875,1261,443066600
404,f,2,0,81,A5,9244,,18.99,0.05975341796875,1269,443834600
405,pp,1,0,82,A#5,9263,,10,0.00213623046875,385,444746000
406,pp,2,0,82,A#5,9273,,11.01,0.002288818359375,412,445226200
407,mp,1,0,82,A#5,9284,,13.98,0.0128173828125,791,445754600
408,mp,2,0,82,A#5,9298,,14.01,0.011932373046875,775,446425600
409,f,1,0,82,A#5,9312,,16.95,0.031829833984375,712,447098200
410,f,2,0,82,A#5,9329,,17.05,0.038818359375,727,447911800
411,pp,1,0,83,B5,9346,,12.98,0.0052490234375,2092,448730400
412,pp,2,0,83,B5,9359,,13.02,0.00555419921875,2219,449353600
413,mp,1,0,83,B5,9372,,13.99,0.027252197265625,2130,449978600
414,mp,2,0,83,B5,9387,d,,,,
415,mp,2,0,83,B5,9391,,23.31,0.02569580078125,2046,450875200
416,f,1,0,83,B5,9414,,17.99,0.060699462890625,2578,451994000
417,f,2,0,83,B5,9432,,15.05,0.054534912109375,2608,452857600
418,pp,1,0,84,C6,9447,,11.97,0.003631591796875,1822,453580200
419,pp,2,0,84,C6,9459,,11.97,0.004241943359375,1832,454154800
420,mp,1,0,84,C6,9471,,16.03,0.035491943359375,1972,454729400
421,mp,2,0,84,C6,9487,,15.97,0.030059814453125,1891,455499000
422,f,1,0,84,C6,9503,,16.02,0.068817138671875,1989,456265800
423,f,2,0,84,C6,9519,,25.98,0.067138671875,1915,457034600
424,pp,1,0,85,C#6,9535,,11.03,0.00439453125,106,458281800
425,pp,2,0,85,C#6,9545,,11.03,0.00439453125,106,458281800
426,mp,1,0,85,C#6,9556,,13.99,0.025665283203125,614,458811200
427,mp,2,0,85,C#6,9570,,12.96,0.02911376953125,649,459482600
428,f,1,0,85,C#6,9583,,14.05,0.068878173828125,668,460104600
429,f,2,0,85,C#6,9597,,14.96,0.07684326171875,625,460779000
430,pp,1,0,86,D6,9612,,0.22,0.00701904296875,610,461497200
431,pp,2,0,86,D6,9620,,8.02,0.0067138671875,527,461868000
432,mp,1,0,86,D6,9628,,0.22,0.038421630859375,883,462252800
433,mp,2,0,86,D6,9638,,0.22,0.030364990234375,802,462745800
434,f,1,0,86,D6,9648,,0.22,0.06915283203125,877,463225200
435,f,2,0,86,D6,9659,,0.22,0.07257080078125,884,463752400
436,pp,1,0,87,D#6,9716,,7.65,0.001708984375,976,466492400
437,pp,2,0,87,D#6,9724,,9.29,0.00408935546875,6,466859600
438,mp,1,0,87,D#6,9733,,9.99,0.014678955078125,717,467305400
439,mp,2,0,87,D#6,9743,,10.05,0.02093505859375,585,467784800
440,f,1,0,87,D#6,9753,,10.94,0.034820556640625,632,468267000
441,f,2,0,87,D#6,9764,d,,,,
442,f,2,0,87,D#6,9770,,11.34,0.03521728515625,634,469067200
443,pp,1,0,88,E6,9781,,11.99,0.003509521484375,317,469611400
444,pp,2,0,88,E6,9793,,11.96,0.004150390625,69,470187000
445,mp,1,0,88,E6,9805,,14.01,0.016326904296875,628,470761000
446,mp,2,0,88,E6,9819,,12.99,0.0194091796875,708,471433600
447,f,1,0,88,E6,9832,,15.03,0.037628173828125,667,472057200
448,f,2,0,88,E6,9847,,13.97,0.037445068359375,787,472778800
449,pp,1,0,89,F6,9861,,11.03,0.003570556640625,2150,473449600
450,pp,2,0,89,F6,9872,,11,0.001983642578125,1437,473979000
451,mp,1,0,89,F6,9883,,12.98,0.0166015625,3084,474506800
452,mp,2,0,89,F6,9896,,12.01,0.017059326171875,2852,475129800
453,f,1,0,89,F6,9908,,11.98,0.03900146484375,2458,475706400
454,f,2,0,89,F6,9920,,18.94,0.036407470703125,2524,476281600
455,pp,1,0,90,F#6,9933,,7.8,0.001068115234375,449,477190600
456,pp,2,0,90,F#6,9941,,3.96,0.01531982421875,589,477564800
457,mp,1,0,90,F#6,9947,d,,,,
458,mp,1,0,90,F#6,9951,,11.3,0.020263671875,643,477755000
459,mp,2,0,90,F#6,9962,,10.97,0.018524169921875,640,478297600
460,f,1,0,90,F#6,9973,,12.07,0.045379638671875,583,478824000
461,f,2,0,90,F#6,9985,,12.98,0.044158935546875,719,479403400
462,pp,1,0,91,G6,9998,,9,0.005462646484375,1730,480026600
463,pp,2,0,91,G6,10007,,9.95,0.0050048828125,2018,480458800
464,mp,1,0,91,G6,10017,,12.04,0.033935546875,1750,480936400
465,mp,2,0,91,G6,10029,d,,,,
466,mp,2,0,91,G6,10036,d,,,,
467,mp,2,0,91,G6,10043,,12.27,0.031982421875,1664,482172200
468,f,1,0,91,G6,10055,,13.02,0.09356689453125,2377,482761000
469,f,2,0,91,G6,10068,,14.02,0.0892333984375,2326,483386000
470,pp,1,0,92,G#6,10082,,7.67,0.00421142578125,217,484059000
471,pp,2,0,92,G#6,10090,,9.33,0.0098876953125,627,484427200
472,mp,1,0,92,G#6,10099,,10,0.03436279296875,523,484875000
473,mp,2,0,92,G#6,10109,,10.98,0.035675048828125,563,485355200
474,f,1,0,92,G#6,10120,,11,0.0765380859375,579,485882400
475,f,2,0,92,G#6,10131,,18.69,0.06732177734375,576,486410600
476,pp,1,0,93,A6,10143,,8.02,0.001678466796875,361,487307800
477,pp,2,0,93,A6,10150,,8.02,0.001678466796875,361,487307800
478,mp,1,0,93,A6,10158,,11.31,0.024566650390625,1346,487692600
479,mp,2,0,93,A6,10169,,10.98,0.016693115234375,1309,488235400
480,f,1,0,93,A6,10180,,9.99,0.045928955078125,1422,488762400
481,f,2,0,93,A6,10190,,25.7,0.04449462890625,1483,489242000
482,pp,1,0,94,A#6,10203,,10.02,0.02996826171875,834,490475600
483,pp,2,0,94,A#6,10209,,10.02,0.02996826171875,834,490475600
484,mp,1,0,94,A#6,10216,d,,,,
485,mp,1,0,94,A#6,10220,d,,,,
486,mp,1,0,94,A#6,10226,,7.97,0.009735107421875,1093,490956400
487,mp,2,0,94,A#6,10234,,7.03,0.01568603515625,804,491339200
488,f,1,0,94,A#6,10241,,11.32,0.063720703125,741,491676400
489,f,2,0,94,A#6,10252,,10.98,0.05865478515625,682,492219600
490,pp,1,0,95,B6,10263,,13.71,0.0018310546875,314,492746600
491,pp,2,0,95,B6,10270,,5.97,0.014129638671875,803,493404800
492,mp,1,0,95,B6,10277,,5.97,0.014129638671875,803,493404800
493,mp,2,0,95,B6,10283,,6.02,0.01129150390625,295,493691600
494,f,1,0,95,B6,10289,,7,0.037322998046875,409,493980400
495,f,2,0,95,B6,10296,,14.99,0.033843994140625,327,494316400
496,pp,1,0,96,C7,10304,,9.3,0.0035400390625,148,495035800
497,pp,2,0,96,C7,10311,,9.3,0.0035400390625,148,495035800
498,mp,1,0,96,C7,10320,,10.96,0.022003173828125,482,495482400
499,mp,2,0,96,C7,10331,,10.03,0.011993408203125,592,496008400
500,f,1,0,96,C7,10341,,9.01,0.048492431640625,610,496490000
501,f,2,0,96,C7,10350,,48.99,0.0489501953125,539,496922400
502,pp,1,0,97,C#7,10399,,7.7,0.003753662109375,202,499274000
503,pp,2,0,97,C#7,10407,,6.98,0.002105712890625,20,499643800
504,mp,1,0,97,C#7,10414,d,,,,
505,mp,1,0,97,C#7,10418,d,,,,
506,mp,1,0,97,C#7,10423,,7.98,0.013671875,387,500412800
507,mp,2,0,97,C#7,10431,,9.28,0.0211181640625,835,500796000
508,f,1,0,97,C#7,10440,,9.02,0.046661376953125,876,501241600
509,f,2,0,97,C#7,10449,,10.01,0.048370361328125,863,501674400
510,pp,1,0,98,D7,10459,,12.7,0.0015869140625,44,502155000
511,pp,2,0,98,D7,10466,,8,0.0098876953125,548,502764600
512,mp,1,0,98,D7,10472,,8,0.0098876953125,548,502764600
513,mp,2,0,98,D7,10480,,8.03,0.01177978515625,323,503148400
514,f,1,0,98,D7,10488,,7.97,0.0384521484375,611,503533600
515,f,2,0,98,D7,10496,,7.98,0.02984619140625,660,503916200
516,pp,1,0,99,D#7,10504,,12.03,0.001708984375,442,504299400
517,pp,2,0,99,D#7,10510,,6.99,0.017669677734375,705,504876800
518,mp,1,0,99,D#7,10516,,6.99,0.017669677734375,705,504876800
519,mp,2,0,99,D#7,10523,,7.01,0.0157470703125,673,505212400
520,f,1,0,99,D#7,10530,,6.99,0.03778076171875,896,505549000
521,f,2,0,99,D#7,10537,,22.01,0.034759521484375,806,505884600
522,pp,1,0,100,E7,10545,d,,,,
523,pp,1,0,100,E7,10549,,6,0.0074462890625,503,506941200
524,pp,2,0,100,E7,10554,,6,0.0074462890625,503,506941200
525,mp,1,0,100,E7,10559,,6,0.0074462890625,503,506941200
526,mp,2,0,100,E7,10565,,5.97,0.011962890625,524,507229200
527,f,1,0,100,E7,10571,,6.02,0.03271484375,495,507515800
528,f,2,0,100,E7,10577,,16.98,0.03741455078125,506,507804600
529,pp,1,0,101,F7,10584,,5,0.011199951171875,571,508619400
530,pp,2,0,101,F7,10589,,5,0.011199951171875,571,508619400
531,mp,1,0,101,F7,10594,,5,0.011199951171875,571,508619400
532,mp,2,0,101,F7,10599,,6.01,0.006591796875,422,508859600
533,f,1,0,101,F7,10605,,7.01,0.0279541015625,501,509148200
534,f,2,0,101,F7,10612,,19,0.027313232421875,438,509484800
535,pp,1,0,102,F#7,10620,,4.97,0.014678955078125,407,510397000
536,pp,2,0,102,F#7,10625,,4.97,0.014678955078125,407,510397000
537,mp,1,0,102,F#7,10631,d,,,,
538,mp,1,0,102,F#7,10636,,5.02,0.004547119140625,350,510635600
539,mp,2,0,102,F#7,10641,,6,0.00653076171875,304,510876600
540,f,1,0,102,F#7,10647,,5.99,0.02593994140625,429,511164800
541,f,2,0,102,F#7,10653,,17.03,0.02655029296875,490,511452400
542,pp,1,0,103,G7,10660,,3.98,0.0250244140625,381,512269800
543,pp,2,0,103,G7,10665,,3.98,0.0250244140625,381,512269800
544,mp,1,0,103,G7,10670,d,,,,
545,mp,1,0,103,G7,10674,,6.01,0.01275634765625,312,512460600
546,mp,2,0,103,G7,10680,,5.97,0.012420654296875,283,512749200
547,f,1,0,103,G7,10686,,7,0.043975830078125,647,513036000
548,f,2,0,103,G7,10693,,8,0.042236328125,628,513371800
549,pp,1,0,104,G#7,10701,,5.01,0.002593994140625,141,513756000
550,pp,2,0,104,G#7,10706,,5.01,0.00128173828125,46,513996400
551,mp,1,0,104,G#7,10711,,6,0.01092529296875,398,514236800
552,mp,2,0,104,G#7,10717,,6.02,0.00677490234375,143,514524600
553,f,1,0,104,G#7,10723,,6,0.02703857421875,466,514813400
554,f,2,0,104,G#7,10729,,16.95,0.02435302734375,366,515101600
555,pp,1,0,105,A7,10736,,6.02,0.007965087890625,242,515915200
556,pp,2,0,105,A7,10741,,6.02,0.007965087890625,242,515915200
557,mp,1,0,105,A7,10746,,6.02,0.007965087890625,242,515915200
558,mp,2,0,105,A7,10752,,5.01,0.0035400390625,288,516204000
559,f,1,0,105,A7,10757,d,,,,
560,f,1,0,105,A7,10764,,5.96,0.021026611328125,380,516781000
561,f,2,0,105,A7,10770,,6.02,0.0263671875,527,517067000
562,pp,1,0,106,A#7,10776,,5.03,0.0048828125,164,517355800
563,pp,2,0,106,A#7,10781,,5.98,0.0045166015625,573,517597200
564,mp,1,0,106,A#7,10787,,5.03,0.01513671875,494,517884200
565,mp,2,0,106,A#7,10792,,6.96,0.013763427734375,341,518125400
566,f,1,0,106,A#7,10799,,5.99,0.02508544921875,521,518459600
567,f,2,0,106,A#7,10805,,6.05,0.028533935546875,502,518747200
568,pp,1,0,107,B7,10811,,4.97,0.00250244140625,126,519037800
569,pp,2,0,107,B7,10816,,4.99,0.002349853515625,21,519276600
570,mp,1,0,107,B7,10821,,5.05,0.009552001953125,455,519516200
571,mp,2,0,107,B7,10826,,6.95,0.012420654296875,262,519758600
572,f,1,0,107,B7,10833,,6.01,0.023101806640625,546,520092200
573,f,2,0,107,B7,10839,,7.01,0.0206298828125,485,520380600
574,pp,1,0,108,C8,10846,,4.98,0.002410888671875,68,520717200
575,pp,2,0,108,C8,10851,,5.97,0.0029296875,87,520956200
576,mp,1,0,108,C8,10857,,5.02,0.00604248046875,480,521243000
577,mp,2,0,108,C8,10862,,4.99,0.007049560546875,408,521483800
578,f,1,0,108,C8,10867,,5.02,0.0145263671875,246,521723400
579,f,2,0,108,C8,10872,,6.48,0.013641357421875,472,521964400
